# xmcd
#
# Track frame offsets:
#	150
#	14477
#	30145
#	43020
#	57280
#	70187
#	83445
#	97697
#	111625
#	123555
#	137382
#	151607
#	165705
#	179362
#	193225
#	207040
#	220077
#	231677
#
# Disc length: 3221 seconds
#
# Revision: 1
# Processed by: cddbd v1.5.2PL0 Copyright (c) Steve Scherf et al.
# Submitted via: audiograbber 1.83.01
#
DISCID=ed0c9312
DTITLE=Billie Holiday - Billie Holiday Collection 2
DYEAR=2003
DGENRE=Blues
TTITLE0=That's Life I Guess (1936)
TTITLE1=I Can't Give You Anything But Love (1936)
TTITLE2=He Ain't Got Rhythm (1937)
TTITLE3=This Year's Kisses (1937)
TTITLE4=Why Was I Born (1937)
TTITLE5=I Must Have That Man (1937)
TTITLE6=My Last Affair (1937)
TTITLE7=Moanin' Low (1937)
TTITLE8=Let's Call The Whole Thing Off (1937)
TTITLE9=They Can't Take That Away From Me (1937)
TTITLE10=I'll Get By (As Long As I Have You) (1937)
TTITLE11=Mean To Me (1937)
TTITLE12=Foolin' Myself (1937)
TTITLE13=Easy Living (1937)
TTITLE14=I'll Never Be The Same (1937)
TTITLE15=Without Your Love (1937)
TTITLE16=Who Wants Love (1937)
TTITLE17=Trav'lin' All Alone (1937)
EXTD=Track dates provided.
EXTT0=
EXTT1=
EXTT2=
EXTT3=
EXTT4=
EXTT5=
EXTT6=
EXTT7=
EXTT8=
EXTT9=
EXTT10=
EXTT11=
EXTT12=
EXTT13=
EXTT14=
EXTT15=
EXTT16=
EXTT17=
PLAYORDER=
